<?xml version="1.0" encoding="UTF-8" standalone="no"?>
<!-- Created with Inkscape (http://www.inkscape.org/) -->

<svg
   xmlns:dc="http://purl.org/dc/elements/1.1/"
   xmlns:cc="http://creativecommons.org/ns#"
   xmlns:rdf="http://www.w3.org/1999/02/22-rdf-syntax-ns#"
   xmlns:svg="http://www.w3.org/2000/svg"
   xmlns="http://www.w3.org/2000/svg"
   xmlns:sodipodi="http://sodipodi.sourceforge.net/DTD/sodipodi-0.dtd"
   xmlns:inkscape="http://www.inkscape.org/namespaces/inkscape"
   width="200"
   height="28"
   id="svg5458"
   version="1.1"
   inkscape:version="0.48.4 r9939"
   sodipodi:docname="pologo.pdf">
  <defs
     id="defs3">
    <linearGradient
       x1="0"
       y1="0"
       x2="1"
       y2="0"
       gradientUnits="userSpaceOnUse"
       gradientTransform="matrix(35.143825,6.196805,6.196805,-35.143825,507.40459,98.796272)"
       spreadMethod="pad"
       id="linearGradient2370">
      <stop
         style="stop-opacity:1;stop-color:#c8c7c7"
         offset="0"
         id="stop2372" />
      <stop
         style="stop-opacity:1;stop-color:#e9e9e9"
         offset="0.5"
         id="stop2374" />
      <stop
         style="stop-opacity:1;stop-color:#e9e9e9"
         offset="0.5"
         id="stop2376" />
      <stop
         style="stop-opacity:1;stop-color:#c8c7c7"
         offset="0.8"
         id="stop2378" />
      <stop
         style="stop-opacity:1;stop-color:#c8c7c7"
         offset="1"
         id="stop2380" />
    </linearGradient>
    <linearGradient
       x1="0"
       y1="0"
       x2="1"
       y2="0"
       gradientUnits="userSpaceOnUse"
       gradientTransform="matrix(19.969891,3.5212305,3.5212305,-19.969891,507.42691,98.66983)"
       spreadMethod="pad"
       id="linearGradient2350">
      <stop
         style="stop-opacity:1;stop-color:#254aa5"
         offset="0"
         id="stop2352" />
      <stop
         style="stop-opacity:1;stop-color:#176fc1"
         offset="1"
         id="stop2354" />
    </linearGradient>
    <linearGradient
       x1="0"
       y1="0"
       x2="1"
       y2="0"
       gradientUnits="userSpaceOnUse"
       gradientTransform="matrix(35.904167,6.3308735,6.3308735,-35.904167,511.08591,82.947029)"
       spreadMethod="pad"
       id="linearGradient2324">
      <stop
         style="stop-opacity:1;stop-color:#fab20b"
         offset="0"
         id="stop2326" />
      <stop
         style="stop-opacity:1;stop-color:#fddd10"
         offset="0.5"
         id="stop2328" />
      <stop
         style="stop-opacity:1;stop-color:#fddd10"
         offset="0.5"
         id="stop2330" />
      <stop
         style="stop-opacity:1;stop-color:#fab20b"
         offset="0.8"
         id="stop2332" />
      <stop
         style="stop-opacity:1;stop-color:#fab20b"
         offset="1"
         id="stop2334" />
    </linearGradient>
    <clipPath
       clipPathUnits="userSpaceOnUse"
       id="clipPath2304">
      <path
         inkscape:connector-curvature="0"
         d="m 0,0 595.275,0 0,841.89 L 0,841.89 0,0 z"
         id="path2306" />
    </clipPath>
    <linearGradient
       x1="0"
       y1="0"
       x2="1"
       y2="0"
       gradientUnits="userSpaceOnUse"
       gradientTransform="matrix(18.059677,3.1844084,3.1844084,-18.059677,528.8625,93.878555)"
       spreadMethod="pad"
       id="linearGradient2290">
      <stop
         style="stop-opacity:1;stop-color:#ed1c24"
         offset="0"
         id="stop2292" />
      <stop
         style="stop-opacity:1;stop-color:#c4161d"
         offset="0.7"
         id="stop2294" />
      <stop
         style="stop-opacity:1;stop-color:#c4161d"
         offset="1"
         id="stop2296" />
    </linearGradient>
    <clipPath
       clipPathUnits="userSpaceOnUse"
       id="clipPath2218">
      <path
         inkscape:connector-curvature="0"
         d="m 0,0 595.275,0 0,841.89 L 0,841.89 0,0 z"
         id="path2220" />
    </clipPath>
    <linearGradient
       x1="0"
       y1="0"
       x2="1"
       y2="0"
       gradientUnits="userSpaceOnUse"
       gradientTransform="matrix(35.143825,6.196805,6.196805,-35.143825,507.40459,98.796272)"
       spreadMethod="pad"
       id="linearGradient2370-7">
      <stop
         style="stop-opacity:1;stop-color:#c8c7c7"
         offset="0"
         id="stop2372-4" />
      <stop
         style="stop-opacity:1;stop-color:#e9e9e9"
         offset="0.5"
         id="stop2374-1" />
      <stop
         style="stop-opacity:1;stop-color:#e9e9e9"
         offset="0.5"
         id="stop2376-6" />
      <stop
         style="stop-opacity:1;stop-color:#c8c7c7"
         offset="0.8"
         id="stop2378-7" />
      <stop
         style="stop-opacity:1;stop-color:#c8c7c7"
         offset="1"
         id="stop2380-0" />
    </linearGradient>
    <linearGradient
       x1="0"
       y1="0"
       x2="1"
       y2="0"
       gradientUnits="userSpaceOnUse"
       gradientTransform="matrix(19.969891,3.5212305,3.5212305,-19.969891,507.42691,98.66983)"
       spreadMethod="pad"
       id="linearGradient2350-9">
      <stop
         style="stop-opacity:1;stop-color:#254aa5"
         offset="0"
         id="stop2352-6" />
      <stop
         style="stop-opacity:1;stop-color:#176fc1"
         offset="1"
         id="stop2354-1" />
    </linearGradient>
    <linearGradient
       x1="0"
       y1="0"
       x2="1"
       y2="0"
       gradientUnits="userSpaceOnUse"
       gradientTransform="matrix(35.904167,6.3308735,6.3308735,-35.904167,511.08591,82.947029)"
       spreadMethod="pad"
       id="linearGradient2324-5">
      <stop
         style="stop-opacity:1;stop-color:#fab20b"
         offset="0"
         id="stop2326-0" />
      <stop
         style="stop-opacity:1;stop-color:#fddd10"
         offset="0.5"
         id="stop2328-3" />
      <stop
         style="stop-opacity:1;stop-color:#fddd10"
         offset="0.5"
         id="stop2330-9" />
      <stop
         style="stop-opacity:1;stop-color:#fab20b"
         offset="0.8"
         id="stop2332-4" />
      <stop
         style="stop-opacity:1;stop-color:#fab20b"
         offset="1"
         id="stop2334-4" />
    </linearGradient>
    <clipPath
       clipPathUnits="userSpaceOnUse"
       id="clipPath2304-5">
      <path
         inkscape:connector-curvature="0"
         d="m 0,0 595.275,0 0,841.89 L 0,841.89 0,0 z"
         id="path2306-2" />
    </clipPath>
    <linearGradient
       x1="0"
       y1="0"
       x2="1"
       y2="0"
       gradientUnits="userSpaceOnUse"
       gradientTransform="matrix(18.059677,3.1844084,3.1844084,-18.059677,528.8625,93.878555)"
       spreadMethod="pad"
       id="linearGradient2290-0">
      <stop
         style="stop-opacity:1;stop-color:#ed1c24"
         offset="0"
         id="stop2292-4" />
      <stop
         style="stop-opacity:1;stop-color:#c4161d"
         offset="0.7"
         id="stop2294-3" />
      <stop
         style="stop-opacity:1;stop-color:#c4161d"
         offset="1"
         id="stop2296-8" />
    </linearGradient>
  </defs>
  <sodipodi:namedview
     inkscape:document-units="mm"
     id="base"
     pagecolor="#ffffff"
     bordercolor="#666666"
     borderopacity="1.0"
     inkscape:pageopacity="0.0"
     inkscape:pageshadow="2"
     inkscape:zoom="2.8"
     inkscape:cx="102.51467"
     inkscape:cy="51.914414"
     inkscape:current-layer="layer2"
     showgrid="false"
     inkscape:snap-global="false"
     units="px"
     fit-margin-top="0"
     fit-margin-left="0"
     fit-margin-right="0"
     fit-margin-bottom="0"
     inkscape:window-width="1280"
     inkscape:window-height="738"
     inkscape:window-x="-8"
     inkscape:window-y="-8"
     inkscape:window-maximized="1" />
  <metadata
     id="metadata4">
    <rdf:RDF>
      <cc:Work
         rdf:about="">
        <dc:format>image/svg+xml</dc:format>
        <dc:type
           rdf:resource="http://purl.org/dc/dcmitype/StillImage" />
        <dc:title></dc:title>
      </cc:Work>
    </rdf:RDF>
  </metadata>
  <g
     inkscape:groupmode="layer"
     id="layer2"
     inkscape:label="Layer"
     transform="translate(0,-41.87402)">
    <path
       id="path2224"
       style="fill:#000000;fill-opacity:1;fill-rule:nonzero;stroke:none"
       d="m 11.962336,46.333125 -8.3161713,0 0,20.095556 4.629858,0 0,-6.329755 3.6863133,0 c 3.816195,0 6.481801,-2.841317 6.481801,-6.910402 0,-4.036236 -2.665606,-6.855399 -6.481801,-6.855399 m -1.031403,9.853345 -2.6549103,0 0,-5.938586 2.7412423,0 c 1.696087,0 2.709918,1.099395 2.709918,2.94064 0,1.87716 -1.045156,2.997946 -2.79625,2.997946"
       inkscape:connector-curvature="0" />
    <path
       id="path2228"
       style="fill:#000000;fill-opacity:1;fill-rule:nonzero;stroke:none"
       d="m 43.422214,45.990466 c -5.998186,0 -10.52032,4.411352 -10.52032,10.261321 0,0.06875 0.0031,0.136756 0.0036,0.205521 l -1.480637,0 0,-1.520369 -4.02553,0 0,1.520369 -1.85118,0 c -1.0612,0 -1.53641,-0.726571 -1.53641,-1.447794 0,-1.149052 0.909164,-1.557791 1.761027,-1.557791 0.450761,0 0.845751,0.0863 0.849571,0.08713 l 0.08557,0.0191 0.945071,-3.237844 -0.0955,-0.02292 c -0.01149,-0.001 -1.162813,-0.269692 -2.32104,-0.269692 -2.592262,0 -5.362538,1.156701 -5.362538,4.402185 0,2.217145 1.369095,3.198883 1.80152,3.45406 -1.484458,0.673859 -2.471549,2.201093 -2.471549,3.845994 0,2.934518 2.480716,4.983586 6.032567,4.983586 3.701593,0 6.188422,-2.119351 6.188422,-5.273151 l 0,-1.446256 2.112468,0 c 1.445494,4.040045 5.217376,6.77823 9.88467,6.77823 5.997422,0 10.520321,-4.522898 10.520321,-10.520317 0,-5.849968 -4.522899,-10.26132 -10.520321,-10.26132 M 27.39934,61.217079 c 0,1.085655 -0.828943,1.759503 -2.162892,1.759503 -1.019945,0 -1.849652,-0.670029 -1.849652,-1.491328 0,-1.298041 1.201013,-1.491339 1.916884,-1.491339 l 2.09566,0 0,1.223164 z m 16.022668,1.355347 c -3.206521,0 -5.718562,-2.776392 -5.718562,-6.320598 0,-3.399036 2.512041,-6.061601 5.718562,-6.061601 3.20652,0 5.718562,2.662565 5.718562,6.061601 0,3.544206 -2.512042,6.320598 -5.718562,6.320598"
       inkscape:connector-curvature="0" />
    <path
       id="path2232"
       style="fill:#000000;fill-opacity:1;fill-rule:nonzero;stroke:none"
       d="m 96.629793,65.470194 2.57458,0 0,-7.648161 6.258057,0 0,-2.247713 -6.258057,0 0,-5.809925 7.345907,0 0,-2.245944 -9.920487,0 0,17.951743 z"
       inkscape:connector-curvature="0" />
    <path
       id="path2236"
       style="fill:#000000;fill-opacity:1;fill-rule:nonzero;stroke:none"
       d="m 113.91224,57.54175 6.411,0 0,-2.245954 -6.411,0 0,-5.530525 7.8784,0 0,-2.247685 -10.4512,0 0,17.953503 10.88353,0 0,-2.244186 -8.31073,0 0,-5.685153 z"
       inkscape:connector-curvature="0" />
    <path
       id="path2240"
       style="fill:#000000;fill-opacity:1;fill-rule:nonzero;stroke:none"
       d="m 135.69366,57.672294 0,-0.01273 c 1.95422,-0.648463 3.21427,-2.553489 3.21427,-4.864462 0,-2.302198 -1.16165,-4.168542 -3.03326,-4.871499 -0.67836,-0.249542 -1.47622,-0.405947 -3.35838,-0.405947 l -5.50415,0 0,17.951762 2.57458,0 0,-7.117443 3.77311,0 3.76435,7.099851 0.009,0.01817 2.9155,0 -3.82761,-6.990903 c -0.29347,-0.520183 -0.48502,-0.755681 -0.5272,-0.806657 m -6.10694,-7.908248 2.85575,0 c 1.39362,0 1.96653,0.154666 2.44104,0.402438 0.9156,0.506131 1.39889,1.453371 1.39889,2.731015 0,1.977052 -1.20031,3.207228 -3.1317,3.207228 l -3.56398,0 0,-6.340681 z"
       inkscape:connector-curvature="0" />
    <path
       id="path2244"
       style="fill:#000000;fill-opacity:1;fill-rule:nonzero;stroke:none"
       d="m 153.5165,57.672294 0,-0.01273 c 1.95423,-0.648463 3.21779,-2.553489 3.21779,-4.864462 0,-2.302198 -1.1634,-4.168542 -3.03678,-4.871499 -0.67657,-0.249542 -1.47446,-0.405947 -3.35663,-0.405947 l -5.50239,0 0,17.951762 2.57285,0 0,-7.117443 3.77134,0 3.76435,7.099851 0.009,0.01817 2.91376,0 -3.82761,-6.990903 c -0.29349,-0.520183 -0.48503,-0.755681 -0.5272,-0.806657 m -6.1052,-7.908248 2.85577,0 c 1.39361,0 1.96827,0.154666 2.43923,0.402438 0.91738,0.509658 1.40066,1.453371 1.40066,2.731015 0,1.977052 -1.2003,3.207228 -3.13166,3.207228 l -3.564,0 0,-6.340681 z"
       inkscape:connector-curvature="0" />
    <path
       id="path2276"
       style="fill:#000000;fill-opacity:1;fill-rule:nonzero;stroke:none"
       d="m 192.29759,55.315817 c -1.92259,-0.810136 -3.58685,-1.509593 -3.58685,-3.126397 0,-1.446344 1.41119,-2.576327 3.209,-2.576327 2.24244,0 3.88734,1.520129 3.90492,1.535961 l 0.0317,0.02994 1.15988,-2.115906 0.009,-0.02099 -0.0164,-0.01818 c -0.0182,-0.01915 -1.79431,-1.810102 -5.09116,-1.810102 -3.31094,0 -5.80818,2.161585 -5.80818,5.024367 0,3.008663 2.61149,4.15096 4.91544,5.154434 1.92607,0.8418 3.74673,1.634385 3.74673,3.384734 0,1.291677 -0.94547,2.599206 -3.0561,2.599206 -2.61325,0 -4.51473,-1.89623 -4.53583,-1.91557 l -0.0262,-0.02974 -1.45863,1.957721 0.0182,0.01934 c 0.021,0.02294 2.18091,2.367197 5.95229,2.367197 1.69764,0 3.14748,-0.518433 4.18962,-1.49554 0.97886,-0.919114 1.51839,-2.187942 1.51839,-3.579822 0,-3.249418 -2.69761,-4.384689 -5.07711,-5.384645"
       inkscape:connector-curvature="0" />
    <g
       transform="matrix(0.76400288,0,0,-0.76400288,-331.05891,121.35607)"
       id="g2278">
      <g
         id="g2280">
        <g
           id="g2286">
          <g
             id="g2288">
            <path
               inkscape:connector-curvature="0"
               d="m 539.28,90.96 c -2.524,-1.955 -4.905,-3.171 -7.674,-4.574 l 0,0 c -0.424,-0.221 -0.874,-0.45 -1.304,-0.671 l 0,0 c 2.382,-2.079 4.94,-4.232 8.658,-6.543 l 0,0 c 6.339,-3.942 13.463,-5.824 13.645,-5.871 l 0,0 c -1.394,1.816 -4.123,5.978 -5.976,11.755 l 0,0 c -1.68,5.217 -2.464,10.748 -2.486,10.897 l 0,0 c -0.035,-0.068 -1.248,-2.189 -4.863,-4.993"
               style="fill:url(#linearGradient2290-0);stroke:none"
               id="path2298" />
          </g>
        </g>
      </g>
    </g>
    <g
       transform="matrix(0.76400288,0,0,-0.76400288,-331.05891,121.35607)"
       id="g2300">
      <g
         id="g2302"
         clip-path="url(#clipPath2304-5)">
        <g
           id="g2308"
           transform="translate(530.3019,85.7154)">
          <path
             inkscape:connector-curvature="0"
             d="m 0,0 c -0.308,0.266 -0.625,0.546 -0.938,0.816 -2.713,2.389 -5.277,4.643 -9.15,6.901 -6.476,3.794 -12.608,4.632 -12.681,4.636 0.276,0.079 4.558,0.934 10.825,0.405 6.194,-0.529 10.848,-3.187 17.769,-3.528 4.703,-0.236 7.86,0.944 8.016,1.008 C 13.806,10.17 12.594,8.048 8.978,5.244 6.454,3.29 4.073,2.074 1.304,0.671 0.826,0.421 0.374,0.191 0,0"
             style="fill:#ffffff;fill-opacity:1;fill-rule:nonzero;stroke:none"
             id="path2310" />
        </g>
      </g>
    </g>
    <g
       transform="matrix(0.76400288,0,0,-0.76400288,-331.05891,121.35607)"
       id="g2312">
      <g
         id="g2314">
        <g
           id="g2320">
          <g
             id="g2322">
            <path
               inkscape:connector-curvature="0"
               d="m 521.563,80.556 c -6.264,-4.292 -8.399,-9.036 -8.439,-9.171 l 0,0 c 0.892,0.286 4.858,2.549 11.051,2.756 l 0,0 c 3.391,0.111 6.319,-0.377 9.361,-0.866 l 0,0 c 2.889,-0.464 5.882,-0.928 9.47,-0.878 l 0,0 c 4.355,0.056 8.739,0.568 9.599,0.904 l 0,0 c -0.182,0.047 -7.306,1.929 -13.645,5.871 l 0,0 c -3.718,2.311 -6.276,4.464 -8.658,6.543 l 0,0 c -2.491,-1.273 -5.309,-2.806 -8.739,-5.159"
               style="fill:url(#linearGradient2324-5);stroke:none"
               id="path2336" />
          </g>
        </g>
      </g>
    </g>
    <g
       transform="matrix(0.76400288,0,0,-0.76400288,-331.05891,121.35607)"
       id="g2338">
      <g
         id="g2340">
        <g
           id="g2346">
          <g
             id="g2348">
            <path
               inkscape:connector-curvature="0"
               d="m 513.124,71.385 c 0.04,0.135 2.175,4.879 8.439,9.171 l 0,0 c 3.43,2.353 6.248,3.886 8.739,5.159 l 0,0 c -0.308,0.267 -0.625,0.546 -0.938,0.816 l 0,0 c -2.713,2.39 -5.277,4.643 -9.15,6.901 l 0,0 c -6.476,3.794 -12.608,4.632 -12.681,4.636 l 0,0 5.591,-26.683 z"
               style="fill:url(#linearGradient2350-9);stroke:none"
               id="path2356" />
          </g>
        </g>
      </g>
    </g>
    <g
       transform="matrix(0.76400288,0,0,-0.76400288,-331.05891,121.35607)"
       id="g2358">
      <g
         id="g2360">
        <g
           id="g2366">
          <g
             id="g2368">
            <path
               inkscape:connector-curvature="0"
               d="m 507.533,98.068 c 0.073,-0.004 6.205,-0.842 12.681,-4.636 l 0,0 c 3.873,-2.258 6.437,-4.511 9.15,-6.901 l 0,0 c 0.313,-0.27 0.63,-0.549 0.938,-0.816 l 0,0 c 0.374,0.192 0.826,0.421 1.304,0.671 l 0,0 c 2.769,1.403 5.15,2.619 7.674,4.574 l 0,0 c 3.615,2.804 4.828,4.925 4.863,4.993 l 0,0 c -0.156,-0.063 -3.313,-1.243 -8.016,-1.008 l 0,0 c -6.921,0.342 -11.576,2.998 -17.769,3.528 l 0,0 c -1.466,0.124 -2.822,0.172 -4.045,0.172 l 0,0 c -4.005,0 -6.569,-0.516 -6.78,-0.577"
               style="fill:url(#linearGradient2370-7);stroke:none"
               id="path2382" />
          </g>
        </g>
      </g>
    </g>
    <path
       style="fill:#000000;stroke:none"
       d="m 162.65958,47.513436 2.57409,0 0,17.949888 -2.57409,0 z"
       id="rect5625"
       inkscape:connector-curvature="0" />
    <path
       id="path2236-5"
       style="fill:#000000;fill-opacity:1;fill-rule:nonzero;stroke:none"
       d="m 172.59568,57.524519 6.41098,0 0,-2.245954 -6.41098,0 0,-5.530507 7.87838,0 0,-2.247713 -10.45122,0 0,17.953503 10.88354,0 0,-2.244167 -8.3107,0 0,-5.685162 z"
       inkscape:connector-curvature="0" />
  </g>
</svg>
